# xmcd
#
# Track frame offsets: 
#        150
#        24987
#        47538
#        63084
#        80440
#        98997
#        116631
#        136229
#        149067
#        173184
#        190016
#        207352
#        229906
#        248740
#        268017
#        287171
#        305209
#
# Disc length: 4278 seconds
#
# Revision: 1
# Processed by: cddbd v1.5.1PL0 Copyright (c) Steve Scherf et al.
# Submitted via: ExactAudioCopy v0.95a5
#
DISCID=f810b411
DTITLE=Various Artist - Super Caribe 2 (Disc2)
DYEAR=2000
DGENRE=Salsa
TTITLE0=Michael Chancon - Corazon Partido (Batucada Mix)      
TTITLE1=Magdalena - Magalenha                           
TTITLE2=DJ Dero /Batucada Nº3                        
TTITLE3=King Africa - Mama Yo Quero                       
TTITLE4=SDR Salsa and Michael - Sobrive I Will Survive              
TTITLE5=Noelia - Candela                             
TTITLE6=Santo Rodriguez - Maria Maria                         
TTITLE7=Testa Rossa - Mambo Italiano                      
TTITLE8=Michael Chancon - La Banana Manbo Remix               
TTITLE9=El Simbolo - Oh La La La                         
TTITLE10=Jenny - Rosalinda                           
TTITLE11=B-Disco - No Me Ames                          
TTITLE12=Gilena Noriega - Come Baby Come                      
TTITLE13=Jehnny Mas - Stop                                
TTITLE14=Orquestra Lisboa Latina - Dancing The Conga Remix            
TTITLE14=
TTITLE15=Jessica - Let´s Get Loud                      
TTITLE16=King Africa - El Camaleon                         
EXTD=YEAR: 2000
EXTT0=
EXTT1=
EXTT2=
EXTT3=
EXTT4=
EXTT5=
EXTT6=
EXTT7=
EXTT8=
EXTT9=
EXTT10=
EXTT11=
EXTT12=
EXTT13=
EXTT14=
EXTT15=
EXTT16=
PLAYORDER=
